OpenSim_Sub06_CSStiffKnee_GRF.mot
version=1
nRows=34
nColumns=19
inDegrees=no
endheader
time	lFx	lFy	lFz	lCOPx	lCOPy	lCOPz	rFx	rFy	rFz	rCOPx	rCOPy	rCOPz	lMx	lMy	lMz	rMx	rMy	rMz
53.73000000	-72.19973151	549.66226286	67.33054145	0.75863456	0	-0.68229491	87.89626404	580.69222294	-95.78376154	0.45502098	0	-0.27990880	0	-11.95273711	0	0	2.42490824	0
53.74000000	-79.12584992	601.56033134	80.76475340	0.75002119	0	-0.67622715	88.82299407	553.89085988	-91.18334603	0.44990164	0	-0.27994698	0	-14.71835176	0	0	2.47271031	-0.00000000
53.75000000	-79.32014691	610.85275420	88.65617089	0.74070164	0	-0.67091719	87.33541857	517.40205364	-83.82499639	0.44492901	0	-0.28012919	0	-16.91070241	0	0	2.56086596	0
53.76000000	-74.78815580	596.74647484	93.12649159	0.73342991	0	-0.66909758	83.27711108	471.97234283	-73.77005587	0.44015160	0	-0.28055335	0	-18.67119118	0	0	2.73204465	0
53.77000000	-68.19110499	575.58926976	95.27527785	0.72837409	0	-0.66970926	76.95885465	419.42028108	-61.59749809	0.43603805	0	-0.28142320	0	-19.91647788	0	0	2.87530810	0
53.78000000	-61.54416378	556.02135574	95.11496140	0.72534367	0	-0.67111389	68.88665683	362.06728420	-48.26592611	0.43366827	0	-0.28314217	0	-20.47486970	0	0	2.76224754	-0.00000000
53.79000000	-55.67475516	540.71826358	92.38166565	0.72357159	0	-0.67227188	59.50184576	302.38528220	-35.47697382	0.43408020	0	-0.28627451	0	-20.18731349	0	0	2.48783443	-0.00000000
53.80000000	-50.20562087	529.70556766	87.36386977	0.72196571	0	-0.67284424	49.24032037	242.89437548	-24.65559272	0.43785208	0	-0.29089627	0	-19.11449360	0	0	2.18116274	-0.00000000
53.81000000	-44.56954860	522.50048086	81.37132514	0.71966415	0	-0.67293909	38.51349138	186.22058807	-16.19338980	0.44336920	0	-0.29491070	0	-17.61146661	0	0	1.64284957	0
53.82000000	-38.75420805	518.99774320	75.89614068	0.71642021	0	-0.67289135	27.82160408	134.85280247	-10.62659561	0.44212572	0	-0.29178947	0	-16.03057358	0	0	1.03003881	-0.00000000
53.83000000	-33.37401021	519.59736113	72.14775035	0.71230964	0	-0.67292969	17.59719833	90.91197281	-7.42419503	0.41285787	0	-0.26839535	0	-14.74461724	0	0	0.38201290	-0.00000000
53.84000000	-29.02335919	524.64393390	70.53252351	0.70746844	0	-0.67313120	8.53187413	56.05952905	-5.49086062	0.32927771	0	-0.20982575	0	-14.00415050	0	0	-0.17666921	0.00000000
53.85000000	-25.79110967	533.71291895	70.56019955	0.70239456	0	-0.67357888	1.41352610	31.04570855	-4.13910108	0.19318568	0	-0.11965143	0	-13.69967182	0	0	-0.40385015	0
53.86000000	-23.39834994	545.71974152	71.62802482	0.69738182	0	-0.67425459	-2.78267031	14.98116521	-2.84251167	0.07062571	0	-0.04206226	0	-13.65495731	0	0	-0.28470948	0.00000000
53.87000000	-21.58222492	559.53715599	73.33566931	0.69258100	0	-0.67504785	-3.45691457	5.61338941	-1.37462037	0.00602568	0	-0.00237646	0	-13.77004901	0	0	-0.12316765	-0.00000000
53.88000000	-20.23286784	574.23604935	75.33429274	0.68788305	0	-0.67583998	-2.14396739	1.09929695	-0.14105613	-0.01376466	0	0.00917565	0	-13.94827600	0	0	-0.02427383	0.00000000
53.89000000	-19.20675067	589.12051997	77.41607493	0.68298931	0	-0.67653975	-0.84562490	-0.19549826	0.23492554	-0.01269288	0	0.00802861	0	-14.14272814	0	0	0.01290055	-0.00000000
53.90000000	-18.31161186	603.85656212	79.59759918	0.67782568	0	-0.67710009	-0.13688384	-0.02588650	0.21751453	-0.00660915	0	0.00405676	0	-14.36988819	0	0	0.01680824	-0.00000000
53.91000000	-17.29248270	618.04027062	81.71136604	0.67244866	0	-0.67759671	0.09077889	0.54779842	0.26525378	-0.00198414	0	0.00115522	0	-14.56561771	0	0	0.01015684	-0.00000000
53.92000000	-16.13244294	631.02594753	83.54451945	0.66705028	0	-0.67808820	0.07652926	0.98867545	0.18266565	0.00014240	0	-0.00013795	0	-14.73084768	0	0	0.00376071	0.00000000
53.93000000	-14.89763139	642.25294388	84.91715546	0.66165626	0	-0.67853915	0.00168295	1.13663044	0.07998965	0.00063813	0	-0.00041594	0	-14.88878692	0	0	0.00035514	0.00000000
53.94000000	-13.47933171	651.45163812	85.71624595	0.65621013	0	-0.67891740	-0.04904538	1.12672238	0.04530608	0.00047722	0	-0.00029915	0	-14.98033723	0	0	-0.00070529	-0.00000000
53.95000000	-11.87566273	658.62008091	86.07775844	0.65069043	0	-0.67922739	-0.05943537	1.08829933	0.01509044	0.00021668	0	-0.00013163	0	-15.01615004	0	0	-0.00066261	-0.00000000
53.96000000	-10.10167179	663.86557609	86.20061437	0.64526336	0	-0.67948777	-0.06311839	1.06823049	0.00182137	0.00004894	0	-0.00002729	0	-14.98684694	0	0	-0.00034852	-0.00000000
53.97000000	-8.21643131	667.26376944	86.22046838	0.63994182	0	-0.67966402	-0.08229188	1.06040543	0.03027334	-0.00001766	0	0.00001270	0	-14.88353378	0	0	-0.00010640	-0.00000000
53.98000000	-6.23526983	668.71016196	86.20916342	0.63452576	0	-0.67971944	-0.08298214	0.97492288	0.06532444	-0.00002716	0	0.00001744	0	-14.77083409	0	0	0.00000608	-0.00000000
53.99000000	-4.15218082	668.13852532	86.14513627	0.62890874	0	-0.67970334	-0.07323190	0.87180177	0.06222165	-0.00001726	0	0.00001073	0	-14.67820949	0	0	0.00003298	0.00000000
54	-2.00179764	665.79474481	86.01195363	0.62305945	0	-0.67965517	-0.04457322	0.81998201	0.04124563	-0.00000679	0	0.00000407	0	-14.59742929	0	0	0.00002503	0.00000000
54.01000000	0.12639904	662.17142213	85.87827788	0.61717016	0	-0.67960258	-0.02513844	0.84966409	0.01048554	-0.00000098	0	0.00000047	0	-14.58086918	0	0	0.00001154	-0.00000000
54.02000000	2.22016827	657.81756607	85.67361635	0.61127885	0	-0.67957731	-0.04837703	0.94388497	-0.01761508	0.00000097	0	-0.00000068	0	-14.57937485	0	0	0.00000273	0.00000000
54.03000000	4.44740095	653.16238532	85.29479793	0.60531088	0	-0.67958237	-0.09591860	1.05440952	-0.00400228	0.00000113	0	-0.00000071	0	-14.52080797	0	0	-0.00000095	-0.00000000
54.04000000	6.88601627	648.46566092	84.79498785	0.59931382	0	-0.67958852	-0.12756539	1.11741928	0.02986041	0.00000104	0	-0.00000057	0	-14.37746027	0	0	-0.00000188	0.00000000
54.05000000	9.47899558	643.80217657	84.28325102	0.59332546	0	-0.67956836	-0.10790104	1.10769274	0.02243020	0.00000139	0	-0.00000063	0	-14.13534863	0	0	-0.00000207	-0.00000000
54.06000000	11.97498038	639.36259799	83.95088969	0.58734862	0	-0.67949499	-0.08336958	1.13785382	0.02831859	0.00000198	0	-0.00000082	0	-13.86058425	0	0	-0.00000216	-0.00000000
